<?xml version="1.0" encoding="UTF-8"?>
<svg viewBox="0 0 48 48" xmlns="http://www.w3.org/2000/svg" xmlns:xlink="http://www.w3.org/1999/xlink">
 <defs>
  <linearGradient id="a">
   <stop offset="0"/>
   <stop stop-opacity="0" offset="1"/>
  </linearGradient>
  <linearGradient id="l" x2="0" y1="-150.7" y2="327.66" gradientUnits="userSpaceOnUse">
   <stop stop-opacity="0" offset="0"/>
   <stop offset=".5"/>
   <stop stop-opacity="0" offset="1"/>
  </linearGradient>
  <linearGradient id="k" x1="16.25" x2="31.5" y1="12.25" y2="36.625" gradientTransform="matrix(1.1078 0 0 1 -1.8778 -.5)" gradientUnits="userSpaceOnUse">
   <stop stop-color="#fff" offset="0"/>
   <stop stop-color="#ddd" offset="1"/>
  </linearGradient>
  <linearGradient id="j" x2="0" y1="29.224" y2="35.474" gradientUnits="userSpaceOnUse">
   <stop stop-color="#fff" offset="0"/>
   <stop stop-color="#c9c9c9" offset="1"/>
  </linearGradient>
  <linearGradient id="i" x1="26.504" x2="28.364" y1="35.82" y2="36.57" gradientUnits="userSpaceOnUse" xlink:href="#a"/>
  <linearGradient id="h" x1="22.687" x2="21.408" y1="36.39" y2="35.74" gradientTransform="matrix(-.97769 .21008 .21008 .97769 61.568 -4.4483)" gradientUnits="userSpaceOnUse" xlink:href="#a"/>
  <radialGradient id="g" cx="55" cy="125" r="14.375" gradientUnits="userSpaceOnUse">
   <stop stop-color="#fff" offset="0"/>
   <stop stop-color="#fff520" stop-opacity=".89109" offset=".5"/>
   <stop stop-color="#fff300" stop-opacity="0" offset="1"/>
  </radialGradient>
  <radialGradient id="d" cx="16.215" cy="19.836" r="13.565" gradientTransform="matrix(1 0 0 .68192 19.762 14.904)" gradientUnits="userSpaceOnUse">
   <stop stop-color="#727e0a" offset="0"/>
   <stop stop-color="#5b6508" offset="1"/>
  </radialGradient>
  <radialGradient id="b" cx="29.345" cy="17.064" r="9.1621" gradientTransform="matrix(.788 3.8776e-16 -3.8776e-16 .788 6.2212 3.6176)" gradientUnits="userSpaceOnUse">
   <stop stop-color="#e9b15e" offset="0"/>
   <stop stop-color="#966416" offset="1"/>
  </radialGradient>
  <radialGradient id="e" cx="605.71" cy="486.65" r="117.14" gradientTransform="matrix(-2.7744 0 0 1.9697 112.76 -872.89)" gradientUnits="userSpaceOnUse" xlink:href="#a"/>
  <radialGradient id="f" cx="605.71" cy="486.65" r="117.14" gradientTransform="matrix(2.7744 0 0 1.9697 -1891.6 -872.89)" gradientUnits="userSpaceOnUse" xlink:href="#a"/>
  <radialGradient id="c" cx="31.113" cy="19.009" r="8.6621" gradientUnits="userSpaceOnUse" xlink:href="#a"/>
 </defs>
 <g transform="matrix(.02496 0 0 .014857 46.772 36.609)">
  <path d="m-1559.3-150.7h1339.6v478.36h-1339.6z" fill="url(#l)" opacity=".40206"/>
  <path d="m-219.62-150.68v478.33c142.87 0.90045 345.4-107.17 345.4-239.2s-159.44-239.13-345.4-239.13z" fill="url(#f)" opacity=".40206"/>
  <path d="m-1559.3-150.68v478.33c-142.87 0.90045-345.4-107.17-345.4-239.2s159.44-239.13 345.4-239.13z" fill="url(#e)" opacity=".40206"/>
 </g>
 <path d="m5.3035 8.5h38.398a2.75 2.75 0 0 1 2.75 2.75v24.5a2.75 2.75 0 0 1 -2.75 2.75h-38.398a2.75 2.75 0 0 1 -2.75 -2.75v-24.5a2.75 2.75 0 0 1 2.75 -2.75" fill="url(#k)" fill-rule="evenodd" stroke="#939393"/>
 <path d="m5.2977 9.6293h38.401a1.75 1.75 0 0 1 1.75 1.75v24.241a1.75 1.75 0 0 1 -1.75 1.75h-38.401a1.75 1.75 0 0 1 -1.75 -1.75v-24.241a1.75 1.75 0 0 1 1.75 -1.75" fill="none" stroke="#fff"/>
 <g transform="matrix(.4348 0 0 .4348 -4.1223 8.4414)">
  <path d="m32.623 41.306h10.607c3.0052 0 5.9805-1.1019 7.0711-4.2426 1.0356-2.9825 0.17678-8.6621-6.5407-13.258h-12.551c-6.7175 4.2426-7.557 10.045-6.0104 13.435 1.5756 3.4538 4.2426 4.0659 7.4246 4.0659z" fill="url(#d)" fill-rule="evenodd" stroke="#404604" stroke-linecap="round" stroke-linejoin="round" stroke-width="2.2999"/>
  <path d="m37.695 26.457s-2.1513 1.6603-1.966 3.6605c-2.0412-1.8008-2.0999-5.2515-2.0999-5.2515l4.0659 1.591z" fill="#9db029" fill-rule="evenodd"/>
  <path d="m33.211 39.483h9.2971c2.3788 0 4.734-0.87226 5.5973-3.3584 0.81979-2.3608-0.08536-6.8567-5.4028-10.495h-10.386c-5.3174 3.3584-6.2072 7.9512-4.983 10.635 1.2472 2.7339 3.3584 3.2184 5.8771 3.2184z" fill="none" opacity=".21519" stroke="#fff" stroke-linecap="round" stroke-linejoin="round" stroke-width="2.2999"/>
  <path d="m38.673 26.457s2.1513 1.6603 1.966 3.6605c2.0412-1.8008 2.0999-5.2515 2.0999-5.2515l-4.0659 1.591z" fill="#9db029" fill-rule="evenodd"/>
  <path transform="translate(6.5123 3.1703)" d="m39.775 19.009a8.6621 8.6621 0 1 1 -17.324 0 8.6621 8.6621 0 1 1 17.324 0z" fill="url(#c)" fill-rule="evenodd"/>
  <path transform="translate(6.6373 -.32967)" d="m39.775 19.009a8.6621 8.6621 0 1 1 -17.324 0 8.6621 8.6621 0 1 1 17.324 0z" fill="url(#b)" fill-rule="evenodd" stroke="#6f4709" stroke-linecap="round" stroke-linejoin="round" stroke-width="2.2999"/>
  <path transform="matrix(.74738 0 0 .74738 14.497 4.4724)" d="m39.775 19.009a8.6621 8.6621 0 1 1 -17.324 0 8.6621 8.6621 0 1 1 17.324 0z" fill="none" opacity=".12658" stroke="#fff" stroke-linecap="round" stroke-linejoin="round" stroke-width="3.0773"/>
  <path d="m42.346 33.705h4.2426l-2.4749-2.2981-0.53033 0.70711-0.53033-0.53033-0.70711 2.1213z" fill="url(#j)" fill-rule="evenodd"/>
  <path d="m28.31 40.272c-1.2476-0.54497-1.806-1.8583-1.806-1.8583 0.84128-4.0691 3.7199-7.0462 3.7199-7.0462s-2.2793 6.4115-1.9139 8.9045z" fill="url(#i)" fill-rule="evenodd" opacity=".22785"/>
  <path d="m47.216 39.414c1.2312-0.58098 1.8044-2.0023 1.8044-2.0023-0.95912-4.043-3.9762-6.8428-3.9762-6.8428s2.4646 6.3426 2.1718 8.8451z" fill="url(#h)" fill-rule="evenodd" opacity=".22785"/>
 </g>
 <path d="m21.34295,15.75347c0,.37696-.08854.66604-.26561.86726s-.41854.29982-.7244.29982c-.12476,0-.24415-.02348-.35818-.07043v-.53525c.10061.07646.21195.1147.33403.1147 .15025,0 .26293-.05567.33805-.16701s.1147-.28104.1147-.50507v-1.78484h.56141v1.78081m1.56752-1.03026c.3139,0 .56409.09659.75056.28976s.2797.45275.2797.77873c0,.35415-.09994.63049-.29982.82903s-.46818.2958-.80489.2958c-.30988,0-.56208-.09726-.75659-.29177s-.28976-.44939-.28976-.76464c0-.35415.10128-.63184.30384-.83306s.47488-.30384.81696-.30384m-.04628,1.76069c.16366,0 .29647-.05835.39842-.17506s.15494-.27836.15494-.48092c0-.20524-.05098-.36689-.15293-.48494s-.23275-.17909-.39238-.17909-.29244.06238-.40244.18714-.165.28641-.165.48897 .05366.35751.16098.47287c.10866.11403.24147.17104.39842.17104m3.41876.37427h-.53927v-1.12885c0-.18915-.02884-.32598-.08653-.41049-.05768-.08585-.15628-.12878-.2958-.12878-.12207,0-.22336.04628-.30384.13884s-.12073.21061-.12073.35415v1.17514h-.54531v-3.05052h.54531v1.27776c.07378-.12073.16567-.21128.27567-.27165s.24079-.09055.38836-.09055c.22671,0 .39708.07043.5111.21128s.17104.35214.17104.63385v1.28983m2.471,0h-.53927v-1.12885c0-.18915-.02884-.32598-.08653-.41049-.05768-.08585-.15628-.12878-.2958-.12878-.12208,0-.22336.04628-.30384.13884s-.12073.21061-.12073.35415v1.17514h-.54531v-2.06051h.54531v.28775c.07378-.12073.16567-.21128.27567-.27165s.24079-.09055.38836-.09055c.22671,0 .39708.07043.5111.21128s.17104.35214.17104.63385v1.28983m1.76471-2.88552h1.01013c.4883,0 .85452.11738 1.09867.35214 .24549.23476.36823.58623.36824,1.0544 0,.45208-.13817.81159-.41452,1.07855s-.64794.40043-1.11879.40043h-.94373v-2.88552m.56141,2.44082h.37025c.30317,0 .54128-.09055.71434-.27165s.26159-.4286.26159-.74251c0-.30451-.08452-.54128-.25354-.71031s-.40446-.25354-.70629-.25354h-.38635v1.97801m3.35638-1.69026c.3139,0 .56409.09659.75056.28976s.2797.45275.2797.77873c0,.35415-.09994.63049-.29982.82903s-.46818.2958-.80489.2958c-.30988,0-.56208-.09726-.75659-.29177s-.28976-.44939-.28976-.76464c0-.35415.10128-.63184.30384-.83306s.47488-.30384.81696-.30384m-.04628,1.76069c.16366,0 .29647-.05835.39842-.17506s.15494-.27836.15494-.48092c0-.20524-.05098-.36689-.15293-.48494s-.23275-.17909-.39238-.17909-.29244.06238-.40244.18714-.165.28641-.165.48897 .05366.35751.16098.47287c.10866.11403.24146.17104.39842.17104m3.30004-.53726h-1.37233c0,.16903.05165.30049.15494.39439s.24951.13884.43464.13884c.2039,0 .40043-.06104.58958-.18311v.44671c-.21196.11-.4494.165-.71232.165-.31793,0-.56678-.09323-.74653-.2797s-.26762-.44134-.26762-.76464c0-.34878.09524-.62647.28573-.83306s.44403-.31189.75659-.31189c.275,0 .48964.08586.64391.25756 .15561.17037.23342.40848.23342.71434v.25555m-.50305-.3622c0-.14354-.03622-.25555-.10866-.33604s-.17238-.12073-.30384-.12073c-.11939,0-.22269.04159-.30988.12476s-.13616.1925-.14689.33202h.86928"/>
 <path d="m22.031 19.978h15.312a1.0312 1 0 0 1 1.0312 1 1.0312 1 0 0 1 -1.0312 1h-15.312a1.0312 1 0 0 1 -1.0312 -1 1.0312 1 0 0 1 1.0312 -1" fill="#8d8d8d" fill-rule="evenodd" opacity=".39766"/>
 <path d="m22.031 23h11.938a1.0312 1 0 0 1 1.0312 1 1.0312 1 0 0 1 -1.0312 1h-11.938a1.0312 1 0 0 1 -1.0312 -1 1.0312 1 0 0 1 1.0312 -1" fill="#8d8d8d" fill-rule="evenodd" opacity=".39766"/>
 <g transform="matrix(1,0,0,.83333,0,5)" fill-rule="evenodd" opacity=".48538">
  <path d="m6 30h1v6h-1z"/>
  <path d="m8.0846 30h1.9375v3.6h-1.9375z"/>
  <path d="m11 30h1v3.6h-1z"/>
  <path d="m13 30h2v3.6h-2z"/>
  <path d="m16 30h1v3.6h-1z"/>
  <path d="m18 30h1v3.6h-1z"/>
  <path d="m21 30h1v3.6h-1z"/>
  <path d="m23 30h2v3.6h-2z"/>
  <path d="m26 30h2v3.6h-2z"/>
  <path d="m29 30h1v3.6h-1z"/>
  <path d="m31 30h1v3.6h-1z"/>
  <path d="m33 30h1v3.6h-1z"/>
  <path d="m35 30h2v3.6h-2z"/>
  <path d="m39 30h2v3.6h-2z"/>
  <path d="m42 30h1v6h-1z"/>
 </g>
 <path d="m8.93749,34.3982c.07496.01603.13338.04937.17525.10003s.06359.11322.06359.18766c0,.11425-.03929.20265-.11787.2652s-.19024.09383-.33499.09383c-.0486,0-.09874-.00491-.15044-.01473s-.10417-.02352-.15897-.04265v-.15121c.04343.02533.09099.04446.14268.05738s.10572.01939.16207.01939c.09822,0 .17292-.01939.2241-.05816s.07754-.09512.07755-.16905-.02404-.12149-.07212-.15974-.11399-.05816-.19929-.05816h-.13493v-.12872h.14113c.07703,0 .13596-.01525.1768-.04575s.06126-.07548.06126-.13338-.0212-.10494-.06359-.13648-.1021-.04808-.18068-.04808c-.04291,0-.08892.00465-.13803.01396s-.10314.02378-.16207.04343v-.13958c.05945-.01654.11502-.02895.16672-.03722s.10132-.01241.14734-.01241c.1189,0 .21299.02714.28226.08142s.10391.12666.10391.21868c0,.0641-.01835.11839-.05506.16284s-.08892.07444-.15664.0915m.67154.49241h.54669v.13183h-.73513v-.13183l.24272-.24737c.10288-.10391.1675-.17086.19386-.20084 .05015-.05635.08504-.10391.10469-.14268s.03024-.0778.03024-.11554c0-.06152-.02171-.11166-.06514-.15044s-.099-.05816-.16827-.05816c-.04911,0-.10107.00853-.15587.02559s-.11244.04291-.17448.07755v-.15819c.06307-.02533.122-.04446.1768-.05738s.10494-.01938.15044-.01939c.11994,0 .21557.02999.28692.08995s.10701.1401.10701.24039c0,.04756-.00905.0928-.02714.1357s-.04989.09254-.09693.15044l-.1233.13028-.29312.3001m1.30663-.88944-.39548.61803h.39548v-.61803m-.0411-.13648h.19696v.75451h.16517v.13028h-.16517v.27296h-.15587v-.27296h-.52265v-.15121l.48155-.73358m.62346,0h.61493v.13183h-.47147v.28382l.06824-.01706c.02275-.00413.04549-.0062.06824-.0062 .12924,0 .2316.03541.30708.10624s.11322.16672.11322.28769-.03877.22152-.11632.29079-.18688.10314-.32802.10314c-.0486,0-.09822-.00413-.14889-.01241l-.15587-.03722v-.15742c.04653.02533.0946.0442.14423.05661s.1021.01861.15742.01861c.08943,0 .16026-.02352.21247-.07057s.07832-.11089.07832-.19154-.02611-.14449-.07832-.19154-.12304-.07057-.21247-.07057c-.04187,0-.08375.00465-.12562.01396s-.08375.02378-.12717.04342v-.58159m1.85022.10313c-.08065,0-.14139.03981-.18223.11942s-.06049.19826-.06049.35748 .02016.27787.06049.35748 .10158.11864.18223.11864 .14191-.03955.18223-.11864 .06126-.19877.06126-.35748-.02042-.27839-.06126-.35748-.10107-.11942-.18223-.11942m0-.12407c.12976,0 .22876.05144.297.15431s.10313.25125.10313.44666c0,.1949-.03438.34378-.10313.44666s-.16724.15354-.297.15354-.22902-.05118-.29777-.15354-.10236-.25176-.10236-.44666c0-.19541.03412-.3443.10236-.44666s.16801-.15431.29777-.15431m.67774.02094h.61493v.13183h-.47147v.28382l.06824-.01706c.02275-.00413.04549-.0062.06824-.0062 .12924,0 .2316.03541.30708.10624s.11322.16672.11322.28769-.03877.22152-.11632.29079-.18688.10314-.32802.10314c-.04859,0-.09822-.00413-.14889-.01241l-.15587-.03722v-.15742c.04653.02533.0946.0442.14423.05661s.1021.01861.15742.01861c.08943,0 .16026-.02352.21247-.07057s.07832-.11089.07832-.19154-.02611-.14449-.07832-.19154-.12304-.07057-.21247-.07057c-.04188,0-.08375.00465-.12562.01396s-.08375.02378-.12717.04342v-.58159m1.01119,0h.61493v.13183h-.47147v.28382l.06824-.01706c.02275-.00413.04549-.0062.06824-.0062 .12924,0 .2316.03541.30708.10624s.11321.16672.11322.28769-.03877.22152-.11632.29079-.18688.10314-.32802.10314c-.04859,0-.09822-.00413-.14889-.01241l-.15587-.03722v-.15742c.04653.02533.0946.0442.14423.05661s.1021.01861.15742.01861c.08943,0 .16026-.02352.21247-.07057s.07832-.11089.07832-.19154-.02611-.14449-.07832-.19154-.12304-.07057-.21247-.07057c-.04188,0-.08375.00465-.12562.01396s-.08375.02378-.12717.04342v-.58159m.97009,0h.74443v.06669l-.42029,1.09106h-.16362l.39548-1.02592h-.556v-.13183m1.55788,0h.61493v.13183h-.47147v.28382l.06824-.01706c.02275-.00413.04549-.0062.06824-.0062 .12924,0 .2316.03541.30708.10624s.11322.16672.11322.28769-.03877.22152-.11632.29079-.18688.10314-.32801.10314c-.0486,0-.09822-.00413-.14889-.01241l-.15587-.03722v-.15742c.04653.02533.0946.0442.14423.05661s.1021.01861.15742.01861c.08944,0 .16026-.02352.21247-.07057s.07832-.11089.07832-.19154-.02611-.14449-.07832-.19154-.12304-.07057-.21247-.07057c-.04187,0-.08375.00465-.12562.01396s-.08375.02378-.12717.04342v-.58159m1.03678,1.02592h.2559v-.88324l-.27839.05583v-.14268l.27684-.05583h.15664v1.02592h.2559v.13183h-.66689v-.13183m1.31904-.92279c-.08065,0-.14139.03981-.18223.11942s-.06048.19826-.06048.35748 .02016.27787.06048.35748 .10158.11864.18223.11864 .14191-.03955.18223-.11864 .06126-.19877.06126-.35748-.02042-.27839-.06126-.35748-.10107-.11942-.18223-.11942m0-.12407c.12976,0 .22876.05144.297.15431s.10313.25125.10313.44666c0,.1949-.03438.34378-.10313.44666s-.16724.15354-.297.15354-.22902-.05118-.29777-.15354-.10236-.25176-.10236-.44666c0-.19541.03412-.3443.10236-.44666s.16801-.15431.29777-.15431m1.03057.53739c-.07031,0-.12614.02404-.1675.07212s-.06126.11399-.06126.19774 .02042.14915.06126.19774 .09719.07212.1675.07212 .12588-.02404.16672-.07212 .06203-.11451.06204-.19774-.02068-.14966-.06204-.19774-.09642-.07212-.16672-.07212m.31095-.49086v.14268c-.03929-.01861-.0791-.03283-.11942-.04265s-.07935-.01473-.11864-.01473c-.10339,0-.18249.0349-.23729.10469s-.0853.17525-.09305.31638c.0305-.04497.06876-.07935.11477-.10313s.09667-.03645.15199-.03645c.11632,0 .20808.03541.27529.10624s.10158.16621.10158.28769-.03515.21428-.10546.28614-.16388.10779-.28071.10779c-.1339,0-.23625-.05118-.30708-.15354s-.10624-.25176-.10624-.44666c0-.18301.04342-.32879.13028-.43735s.20343-.16362.34973-.16362c.03929,0 .07884.00388.11864.01163l.12562.03489m.85299-.02559h.61493v.13183h-.47147v.28382l.06824-.01706c.02275-.00413.04549-.0062.06824-.0062 .12924,0 .2316.03541.30708.10624s.11322.16672.11322.28769-.03877.22152-.11632.29079-.18688.10314-.32802.10314c-.0486,0-.09822-.00413-.14889-.01241l-.15587-.03722v-.15742c.04653.02533.09461.0442.14423.05661s.1021.01861.15742.01861c.08943,0 .16026-.02352.21247-.07057s.07832-.11089.07832-.19154-.02611-.14449-.07832-.19154-.12304-.07057-.21247-.07057c-.04188,0-.08375.00465-.12562.01396s-.08375.02378-.12717.04342v-.58159m1.44001.13648-.39548.61803h.39548v-.61803m-.0411-.13648h.19696v.75451h.16517v.13028h-.16517v.27296h-.15587v-.27296h-.52265v-.15121l.48156-.73358m.9569.10313c-.08065,0-.14139.03981-.18223.11942s-.06048.19826-.06048.35748 .02016.27787.06048.35748 .10158.11864.18223.11864 .14191-.03955.18223-.11864 .06126-.19877.06126-.35748-.02042-.27839-.06126-.35748-.10107-.11942-.18223-.11942m0-.12407c.12976,0 .22876.05144.297.15431s.10313.25125.10314.44666c0,.1949-.03438.34378-.10314.44666s-.16724.15354-.297.15354-.22902-.05118-.29777-.15354-.10236-.25176-.10236-.44666c0-.19541.03412-.3443.10236-.44666s.16801-.15431.29777-.15431m1.03057.53739c-.07031,0-.12614.02404-.1675.07212s-.06126.11399-.06126.19774 .02042.14915.06126.19774 .09719.07212.1675.07212 .12588-.02404.16672-.07212 .06204-.11451.06204-.19774-.02068-.14966-.06204-.19774-.09641-.07212-.16672-.07212m.31096-.49086v.14268c-.03929-.01861-.0791-.03283-.11942-.04265s-.07935-.01473-.11864-.01473c-.10339,0-.18249.0349-.23729.10469s-.0853.17525-.09305.31638c.0305-.04497.06876-.07935.11477-.10313s.09667-.03645.15199-.03645c.11632,0 .20808.03541.27529.10624s.10158.16621.10158.28769-.03515.21428-.10546.28614-.16388.10779-.28071.10779c-.13389,0-.23625-.05118-.30708-.15354s-.10624-.25176-.10624-.44666c0-.18301.04342-.32879.13028-.43735s.20342-.16362.34973-.16362c.03929,0 .07884.00388.11864.01163l.12562.03489m.853-.02559h.61493v.13183h-.47147v.28382l.06824-.01706c.02275-.00413.04549-.0062.06824-.0062 .12924,0 .2316.03541.30708.10624s.11322.16672.11322.28769-.03877.22152-.11632.29079-.18688.10314-.32802.10314c-.0486,0-.09822-.00413-.14889-.01241l-.15586-.03722v-.15742c.04653.02533.0946.0442.14423.05661s.1021.01861.15742.01861c.08943,0 .16026-.02352.21247-.07057s.07832-.11089.07832-.19154-.02611-.14449-.07832-.19154-.12304-.07057-.21247-.07057c-.04188,0-.08375.00465-.12562.01396s-.08375.02378-.12717.04342v-.58159m1.44001.13648-.39548.61803h.39548v-.61803m-.0411-.13648h.19696v.75451h.16517v.13028h-.16517v.27296h-.15587v-.27296h-.52265v-.15121l.48155-.73358m.97629.51645c-.07031,0-.12614.02404-.1675.07212s-.06126.11399-.06126.19774 .02042.14915.06126.19774 .09719.07212.1675.07212 .12588-.02404.16672-.07212 .06204-.11451.06204-.19774-.02068-.14966-.06204-.19774-.09641-.07212-.16672-.07212m.31095-.49086v.14268c-.03929-.01861-.0791-.03283-.11942-.04265s-.07935-.01473-.11864-.01473c-.10339,0-.18249.0349-.23729.10469s-.0853.17525-.09305.31638c.0305-.04497.06876-.07935.11477-.10313s.09667-.03645.15199-.03645c.11632,0 .20808.03541.27529.10624s.10158.16621.10158.28769-.03515.21428-.10546.28614-.16388.10779-.28071.10779c-.1339,0-.23625-.05118-.30708-.15354s-.10624-.25176-.10624-.44666c0-.18301.04342-.32879.13028-.43735s.20343-.16362.34973-.16362c.03929,0 .07884.00388.11864.01163l.12562.03489m.3474-.02559h.61493v.13183h-.47147v.28382l.06824-.01706c.02275-.00413.04549-.0062.06824-.0062 .12924,0 .2316.03541.30708.10624s.11322.16672.11322.28769-.03877.22152-.11632.29079-.18688.10314-.32802.10314c-.04859,0-.09822-.00413-.14889-.01241l-.15587-.03722v-.15742c.04653.02533.09461.0442.14423.05661s.1021.01861.15742.01861c.08943,0 .16026-.02352.21247-.07057s.07832-.11089.07832-.19154-.02611-.14449-.07832-.19154-.12304-.07057-.21247-.07057c-.04187,0-.08375.00465-.12562.01396s-.08375.02378-.12717.04342v-.58159m1.47568,0h.74443v.06669l-.42029,1.09106h-.16362l.39548-1.02592h-.556v-.13183m1.38573.10313c-.08065,0-.14139.03981-.18223.11942s-.06048.19826-.06048.35748 .02016.27787.06048.35748 .10158.11864.18223.11864 .14191-.03955.18223-.11864 .06126-.19877.06126-.35748-.02042-.27839-.06126-.35748-.10107-.11942-.18223-.11942m0-.12407c.12976,0 .22876.05144.297.15431s.10313.25125.10314.44666c0,.1949-.03438.34378-.10314.44666s-.16724.15354-.297.15354-.22902-.05118-.29777-.15354-.10236-.25176-.10236-.44666c0-.19541.03412-.3443.10236-.44666s.16801-.15431.29777-.15431m1.03057.53739c-.07031,0-.12614.02404-.1675.07212s-.06126.11399-.06126.19774 .02042.14915.06126.19774 .09719.07212.1675.07212 .12588-.02404.16672-.07212 .06204-.11451.06204-.19774-.02068-.14966-.06204-.19774-.09642-.07212-.16672-.07212m.31095-.49086v.14268c-.03929-.01861-.0791-.03283-.11942-.04265s-.07935-.01473-.11864-.01473c-.10339,0-.18249.0349-.23729.10469s-.0853.17525-.09305.31638c.0305-.04497.06876-.07935.11477-.10313s.09667-.03645.15199-.03645c.11632,0 .20808.03541.27528.10624s.10158.16621.10158.28769-.03516.21428-.10546.28614-.16388.10779-.28071.10779c-.1339,0-.23625-.05118-.30708-.15354s-.10624-.25176-.10624-.44666c0-.18301.04342-.32879.13028-.43735s.20343-.16362.34973-.16362c.03929,0 .07884.00388.11864.01163l.12562.03489m.3474-.02559h.61493v.13183h-.47147v.28382l.06824-.01706c.02275-.00413.04549-.0062.06824-.0062 .12924,0 .2316.03541.30708.10624s.11321.16672.11322.28769-.03877.22152-.11632.29079-.18688.10314-.32802.10314c-.04859,0-.09822-.00413-.14889-.01241l-.15586-.03722v-.15742c.04653.02533.09461.0442.14423.05661s.1021.01861.15742.01861c.08944,0 .16026-.02352.21247-.07057s.07832-.11089.07832-.19154-.02611-.14449-.07832-.19154-.12304-.07057-.21247-.07057c-.04187,0-.08375.00465-.12562.01396s-.08375.02378-.12717.04342v-.58159m1.47568,0h.74443v.06669l-.42029,1.09106h-.16362l.39548-1.02592h-.556v-.13183m1.40512.51645c-.07031,0-.12614.02404-.1675.07212s-.06126.11399-.06126.19774 .02042.14915.06126.19774 .09719.07212.1675.07212 .12588-.02404.16672-.07212 .06204-.11451.06204-.19774-.02068-.14966-.06204-.19774-.09642-.07212-.16672-.07212m.31095-.49086v.14268c-.03929-.01861-.0791-.03283-.11942-.04265s-.07935-.01473-.11864-.01473c-.10339,0-.18249.0349-.23729.10469s-.0853.17525-.09305.31638c.0305-.04497.06876-.07935.11477-.10313s.09667-.03645.15199-.03645c.11632,0 .20808.03541.27529.10624s.10158.16621.10158.28769-.03516.21428-.10546.28614-.16388.10779-.28071.10779c-.1339,0-.23625-.05118-.30708-.15354s-.10624-.25176-.10624-.44666c0-.18301.04342-.32879.13027-.43735s.20343-.16362.34973-.16362c.03929,0 .07884.00388.11864.01163l.12562.03489m.3063-.02559h.74443v.06669l-.42029,1.09106h-.16362l.39548-1.02592h-.556v-.13183m1.05539,1.13371v-.14268c.03929.01861.0791.03283.11942.04265l.11864.01473c.10339,0 .18223-.03464.23651-.10391s.08607-.17551.09383-.31716c-.02999.04446-.06798.07858-.11399.10236s-.09693.03567-.15276.03567c-.1158,0-.20756-.03489-.27528-.10469s-.10081-.1662-.10081-.28769 .03515-.21428.10546-.28614 .16388-.10779.28071-.10779c.13389,0 .23599.05144.3063.15431s.10624.25125.10624.44666c0,.18249-.04343.32827-.13027.43735s-.20265.16284-.34895.16284c-.03929,0-.0791-.00388-.11942-.01163l-.12562-.0349m.31173-.49086c.07031,0 .12588-.02404.16672-.07212s.06204-.11399.06204-.19774-.02068-.14888-.06204-.19696-.09641-.07289-.16672-.07289-.12614.0243-.1675.07289-.06126.11373-.06126.19696 .02042.14966.06126.19774 .09719.07212.1675.07212m.69946.49086v-.14268c.03929.01861.07909.03283.11942.04265l.11864.01473c.10339,0 .18223-.03464.23651-.10391s.08607-.17551.09383-.31716c-.02998.04446-.06798.07858-.11399.10236s-.09693.03567-.15276.03567c-.1158,0-.20756-.03489-.27528-.10469s-.10081-.1662-.10081-.28769 .03515-.21428.10546-.28614 .16388-.10779.28071-.10779c.13389,0 .236.05144.3063.15431s.10624.25125.10624.44666c0,.18249-.04343.32827-.13028.43735s-.20265.16284-.34895.16284c-.03929,0-.0791-.00388-.11942-.01163l-.12562-.0349m.31173-.49086c.07031,0 .12588-.02404.16672-.07212s.06204-.11399.06204-.19774-.02068-.14888-.06204-.19696-.09642-.07289-.16672-.07289-.12614.0243-.1675.07289-.06126.11373-.06126.19696 .02042.14966.06126.19774 .09719.07212.1675.07212"/>
 <path transform="matrix(.61113 0 0 .61113 5.6324 -67.635)" d="m69.375 125a14.375 14.375 0 1 1 -28.75 0 14.375 14.375 0 1 1 28.75 0z" display="block" fill="url(#g)"/>
</svg>
